<svg width="41" height="40" viewBox="0 0 41 40" fill="none" xmlns="http://www.w3.org/2000/svg">
<g clip-path="url(#clip0_962_756)">
<path d="M18.0487 3.69119L3.13561 9.86244C2.30624 10.2062 2.31499 11.3837 3.14936 11.7143L18.1244 17.6531C19.4401 18.1749 20.9055 18.1749 22.2212 17.6531L37.1962 11.7143C38.0306 11.3831 38.04 10.2056 37.21 9.86244L22.2975 3.69181C20.937 3.12877 19.4086 3.12877 18.0481 3.69181" fill="#E3B600"/>
<path d="M21.502 20.8956V35.7313C21.5022 35.8942 21.5422 36.0547 21.6186 36.1986C21.6949 36.3426 21.8053 36.4657 21.9401 36.5572C22.0749 36.6488 22.2301 36.706 22.392 36.7239C22.554 36.7418 22.7179 36.7199 22.8695 36.66L39.557 30.1825C39.7429 30.1086 39.9025 29.9806 40.0149 29.815C40.1273 29.6494 40.1875 29.4539 40.1876 29.2538V14.4188C40.1874 14.2558 40.1473 14.0954 40.071 13.9514C39.9946 13.8075 39.8842 13.6844 39.7494 13.5928C39.6146 13.5012 39.4595 13.444 39.2975 13.4261C39.1355 13.4082 38.9716 13.4301 38.8201 13.49L22.1326 19.9675C21.9466 20.0414 21.7871 20.1695 21.6746 20.3351C21.5622 20.5006 21.5021 20.6955 21.502 20.8956Z" fill="#31C2F2"/>
<path d="M17.6061 21.6612L12.1511 24.2956L1.69674 29.305C1.03424 29.625 0.187988 29.1425 0.187988 28.405V14.4812C0.187988 14.215 0.324238 13.985 0.507988 13.8125C0.583097 13.7376 0.668296 13.6737 0.761113 13.6225C1.01111 13.4725 1.36736 13.4325 1.67049 13.5525L17.5236 19.8337C18.3361 20.1537 18.3986 21.2825 17.6067 21.6618" fill="#ED3049"/>
<path d="M17.6061 21.6612L12.6536 24.0525L0.507324 13.8112C0.582433 13.7364 0.667632 13.6725 0.760449 13.6212C1.01045 13.4712 1.3667 13.4312 1.66982 13.5512L17.5229 19.8325C18.3354 20.1525 18.398 21.2819 17.6061 21.6612Z" fill="#C62842"/>
</g>
<defs>
<clipPath id="clip0_962_756">
<rect width="40" height="40" fill="white" transform="translate(0.1875)"/>
</clipPath>
</defs>
</svg>
