<svg width="41" height="40" viewBox="0 0 41 40" fill="none" xmlns="http://www.w3.org/2000/svg">
<g clip-path="url(#clip0_962_747)">
<path fill-rule="evenodd" clip-rule="evenodd" d="M0.1875 30.7779C0.1875 28.2109 2.26833 26.1299 4.83488 26.1299H27.5595C30.1263 26.1299 32.2069 28.2103 32.2069 30.7779C32.2069 33.3448 30.1261 35.4258 27.5595 35.4258H4.83488C2.26816 35.4258 0.1875 33.3454 0.1875 30.7779ZM4.83548 33.0158C6.0715 33.0158 7.0734 32.0139 7.0734 30.7779C7.0734 29.5418 6.0715 28.5399 4.83548 28.5399C3.59946 28.5399 2.59756 29.5418 2.59756 30.7779C2.59756 32.0139 3.59946 33.0158 4.83548 33.0158ZM27.5589 33.0158C28.795 33.0158 29.7969 32.0139 29.7969 30.7779C29.7969 29.5418 28.795 28.5399 27.5589 28.5399C26.3229 28.5399 25.321 29.5418 25.321 30.7779C25.321 32.0139 26.3229 33.0158 27.5589 33.0158Z" fill="#EA4335"/>
<path fill-rule="evenodd" clip-rule="evenodd" d="M5.41514 14.6893C6.92401 12.6126 9.83054 12.1521 11.9068 13.6607L30.2916 27.0179C32.3681 28.5266 32.8286 31.4326 31.3193 33.5099C29.8105 35.5866 26.904 36.0471 24.8276 34.5385L6.44286 21.1813C4.36641 19.6726 3.90592 16.7665 5.41514 14.6893ZM7.85997 19.2319C8.85989 19.9583 10.2594 19.7367 10.9859 18.7368C11.7124 17.7368 11.4907 16.3373 10.4908 15.6108C9.4909 14.8844 8.09134 15.106 7.36488 16.1059C6.63842 17.1058 6.86005 18.5054 7.85997 19.2319ZM26.2436 32.5884C27.2436 33.3148 28.6431 33.0932 29.3695 32.0933C30.096 31.0933 29.8744 29.6939 28.8744 28.9674C27.8745 28.2409 26.475 28.4626 25.7486 29.4625C25.0221 30.4624 25.2437 31.8619 26.2436 32.5884Z" fill="#FBBC04"/>
<path fill-rule="evenodd" clip-rule="evenodd" d="M19.1008 4.7461C21.5421 3.95284 24.1643 5.28879 24.9574 7.72967L31.9798 29.3422C32.773 31.7832 31.4373 34.405 28.9954 35.1984C26.554 35.9916 23.9319 34.6557 23.1388 32.2148L16.1164 10.6023C15.3233 8.16124 16.6589 5.53952 19.1008 4.7461ZM18.4087 9.85818C18.7906 11.0336 20.0532 11.6769 21.2287 11.295C22.4042 10.913 23.0474 9.65049 22.6655 8.47507C22.2836 7.29956 21.0211 6.65633 19.8455 7.03824C18.67 7.42015 18.0268 8.68268 18.4087 9.85818ZM25.4306 31.4694C25.8126 32.6449 27.0751 33.2881 28.2506 32.9062C29.4261 32.5243 30.0693 31.2618 29.6874 30.0864C29.3055 28.9109 28.0429 28.2676 26.8675 28.6495C25.692 29.0315 25.0488 30.294 25.4307 31.4694H25.4306Z" fill="#34A853"/>
<path fill-rule="evenodd" clip-rule="evenodd" d="M36.4703 4.89763C38.8975 5.7334 40.1876 8.37836 39.352 10.805L31.9536 32.2916C31.1179 34.7185 28.4735 36.0085 26.0458 35.1726C23.6187 34.3368 22.3285 31.6919 23.164 29.2652L30.5625 7.7786C31.3982 5.35175 34.0426 4.06168 36.4704 4.89772L36.4703 4.89763ZM32.8411 8.56377C32.4387 9.73239 33.0599 11.006 34.2285 11.4084C35.3971 11.8108 36.6707 11.1896 37.073 10.0209C37.4754 8.85237 36.8543 7.57883 35.6857 7.17643C34.5171 6.77404 33.2435 7.39514 32.8411 8.56377ZM25.4431 30.0492C25.0407 31.2178 25.6618 32.4915 26.8304 32.8938C27.9991 33.2962 29.2727 32.6751 29.675 31.5065C30.0774 30.3378 29.4563 29.0642 28.2877 28.6619C27.119 28.2595 25.8454 28.8806 25.4431 30.0492Z" fill="#4285F4"/>
</g>
<defs>
<clipPath id="clip0_962_747">
<rect width="40" height="40" fill="white" transform="translate(0.1875)"/>
</clipPath>
</defs>
</svg>
