<svg width="40" height="40" viewBox="0 0 40 40" fill="none" xmlns="http://www.w3.org/2000/svg">
<g clip-path="url(#clip0_966_2618)">
<path d="M24.3451 20.1572C24.658 19.2361 24.8617 18.2693 24.9451 17.2731L22.9563 16.3098C22.9585 15.9874 22.947 15.6626 22.9179 15.3364C22.9097 15.2235 22.8946 15.1128 22.8819 15.0006L24.7528 13.8183C24.5582 12.8361 24.2489 11.898 23.8376 11.021L21.6276 11.1814C21.412 10.7986 21.1712 10.4307 20.9094 10.0825L21.9378 8.12619C21.2881 7.38726 20.5503 6.72794 19.7438 6.16256L17.9114 7.40461C17.5361 7.18337 17.1459 6.98463 16.7415 6.81058L16.6547 4.60246C15.734 4.28965 14.7664 4.08566 13.7715 4L12.8077 5.99064C12.4857 5.98777 12.1626 6.00036 11.8348 6.02847C11.7211 6.03838 11.6099 6.05261 11.4988 6.06595L10.3182 4.19294C9.33486 4.38929 8.3966 4.69878 7.51871 5.10939L7.67968 7.31915C7.29732 7.53543 6.92904 7.77531 6.58164 8.03815L4.62401 7.00892C3.88374 7.65996 3.22447 8.3971 2.66157 9.20474L3.90471 11.0361C3.68213 11.4118 3.4817 11.8017 3.30919 12.2049L1.10003 12.2916C0.787274 13.2127 0.584621 14.1784 0.5 15.176L2.48985 16.1392C2.48777 16.4619 2.49828 16.7863 2.52634 17.1128C2.5364 17.2256 2.55048 17.3359 2.5655 17.4484L0.692492 18.6298C0.889444 19.6121 1.19739 20.5502 1.6086 21.4274L3.81761 21.2673C4.03424 21.6498 4.27412 22.0161 4.53602 22.3657L3.50713 24.3213C4.15698 25.0628 4.89621 25.7217 5.70237 26.2854L7.53383 25.0431C7.91019 25.2665 8.30067 25.4659 8.70375 25.6384L8.79075 27.8469C9.71151 28.1589 10.6763 28.3634 11.6726 28.4476L12.6386 26.4577C12.9596 26.4596 13.2851 26.4486 13.6119 26.4206C13.724 26.4116 13.8352 26.396 13.9453 26.3819L15.1268 28.2564C16.1115 28.0596 17.0484 27.7513 17.9267 27.3407L17.7669 25.1302C18.1478 24.9126 18.5149 24.6733 18.865 24.4116L20.8214 25.4403C21.5604 24.7893 22.2195 24.0526 22.7837 23.2452L21.5428 21.4138C21.7632 21.0374 21.9623 20.6469 22.1373 20.2433L24.3451 20.1572ZM12.7231 23.4371C8.74519 23.4371 5.51012 20.2015 5.51012 16.2244C5.51012 12.2475 8.74519 9.01171 12.7231 9.01171C16.6998 9.01171 19.9353 12.2475 19.9353 16.2244C19.9353 20.2014 16.6999 23.4371 12.7231 23.4371Z" fill="#616E7D"/>
<path d="M6.02539 16.2243C6.02539 19.917 9.02886 22.9216 12.723 22.9216C16.416 22.9216 19.4195 19.917 19.4195 16.2243C19.4195 12.5314 16.416 9.52661 12.723 9.52661C9.02886 9.52661 6.02539 12.5314 6.02539 16.2243ZM17.7628 15.7842C18.0049 18.5694 15.9456 21.0233 13.1621 21.2649C10.3785 21.5085 7.92393 19.4467 7.68077 16.6639C7.43985 13.88 9.49935 11.4257 12.2828 11.184C15.0675 10.9409 17.5221 13.0017 17.7628 15.7842Z" fill="#616E7D"/>
<path d="M25.492 25.8497C25.4259 29.0145 27.9467 31.6432 31.111 31.7093C34.2757 31.776 36.9042 29.2546 36.9703 26.0907C37.0372 22.9261 34.5168 20.2973 31.3509 20.231C28.1863 20.1647 25.5579 22.6852 25.492 25.8497ZM34.2549 24.0916C35.2395 25.7564 34.6884 27.9049 33.0236 28.8898C31.3371 29.8866 29.1582 29.3083 28.1898 27.596C27.2816 25.9878 27.8262 23.8702 29.3969 22.8979C31.0696 21.8622 33.2578 22.4088 34.2549 24.0916Z" fill="#616E7D"/>
<path d="M40.4557 26.8801C40.5207 26.2123 40.515 25.5395 40.4352 24.8662L38.8734 24.4927C38.7914 24.0833 38.6754 23.675 38.5293 23.275L39.6737 22.1457C39.5362 21.842 39.3809 21.5424 39.2072 21.25C39.0354 20.9587 38.848 20.6798 38.6475 20.4124L37.1068 20.8728C36.8268 20.5496 36.5254 20.253 36.2034 19.9856L36.6299 18.4369C36.0785 18.043 35.4911 17.713 34.875 17.4487L33.7687 18.6187C33.3701 18.4807 32.961 18.3757 32.5465 18.3035L32.1376 16.7451C31.4714 16.6806 30.7975 16.6878 30.1278 16.77L29.7511 18.331C29.3411 18.4105 28.9358 18.526 28.536 18.6744L27.4057 17.5309C27.1045 17.667 26.8022 17.8204 26.5103 17.995C26.2183 18.167 25.9392 18.355 25.6726 18.5531L26.1314 20.0966C25.8095 20.3771 25.5128 20.6779 25.2451 20.9992L23.6964 20.5741C23.3016 21.1235 22.9725 21.7115 22.7083 22.326L23.8772 23.4334C23.7393 23.8324 23.6375 24.2415 23.5644 24.656L22.0076 25.0645C21.9418 25.7309 21.9485 26.405 22.0285 27.0769L23.5923 27.4489C23.6723 27.8605 23.7867 28.2666 23.9329 28.6687L22.7895 29.7975C22.9263 30.1016 23.08 30.3997 23.2539 30.6905C23.4276 30.9839 23.6142 31.264 23.8135 31.5298L25.3563 31.0706C25.6356 31.3925 25.9392 31.6889 26.2589 31.9561L25.8347 33.5066C26.3852 33.8998 26.9711 34.2313 27.5851 34.4922L28.6938 33.3242C29.0936 33.4633 29.4988 33.567 29.917 33.6379L30.3246 35.1961C30.9897 35.2593 31.6651 35.2551 32.3368 35.1747L32.7088 33.6116C33.1199 33.5322 33.5264 33.4165 33.9262 33.2685L35.0602 34.4126C35.3614 34.2771 35.6601 34.1218 35.9522 33.9487C36.245 33.7759 36.5219 33.5885 36.7894 33.3878L36.3308 31.8471C36.653 31.5672 36.9496 31.2645 37.2169 30.9442L38.7668 31.3689C39.1607 30.8185 39.4921 30.2308 39.7528 29.6164L38.5839 28.5076C38.7207 28.1113 38.8271 27.7032 38.8989 27.287L40.4557 26.8801ZM31.1055 31.9578C27.8043 31.8888 25.1745 29.1463 25.2441 25.8445C25.3123 22.5432 28.0544 19.9133 31.3568 19.9826C34.6582 20.0516 37.2874 22.794 37.2193 26.0959C37.1497 29.3974 34.4081 32.0274 31.1055 31.9578Z" fill="#616E7D"/>
<path d="M5.51025 16.2244C5.51025 20.2015 8.74532 23.4371 12.7232 23.4371C16.7 23.4371 19.9354 20.2015 19.9354 16.2244C19.9354 12.2475 16.7 9.01172 12.7232 9.01172C8.74532 9.01167 5.51025 12.2475 5.51025 16.2244ZM19.4198 16.2244C19.4198 19.917 16.4164 22.9217 12.7233 22.9217C9.02918 22.9217 6.02571 19.917 6.02571 16.2244C6.02571 12.5315 9.02918 9.52668 12.7233 9.52668C16.4163 9.52668 19.4198 12.5315 19.4198 16.2244Z" fill="#AAD4C8"/>
<path d="M25.244 25.8445C25.1744 29.1464 27.8042 31.8889 31.1055 31.9579C34.4081 32.0275 37.1496 29.3975 37.2192 26.096C37.2873 22.7941 34.6581 20.0517 31.3567 19.9827C28.0543 19.9134 25.3123 22.5433 25.244 25.8445ZM36.9704 26.0907C36.9042 29.2547 34.2757 31.776 31.1111 31.7094C27.9468 31.6433 25.4259 29.0145 25.492 25.8498C25.5579 22.6852 28.1863 20.1647 31.3509 20.2311C34.5168 20.2974 37.0372 22.9261 36.9704 26.0907Z" fill="#82BFAB"/>
</g>
<defs>
<clipPath id="clip0_966_2618">
<rect width="40" height="40" fill="white"/>
</clipPath>
</defs>
</svg>
