<svg width="40" height="40" viewBox="0 0 40 40" fill="none" xmlns="http://www.w3.org/2000/svg">
<path d="M32.5002 13.3333C29.6768 11.2725 21.7627 4.65916 21.7627 4.65916C20.8835 3.91582 19.5693 4.02582 18.8268 4.90416C18.0827 5.78249 18.1927 7.09666 19.071 7.83999L23.5927 11.6667H7.91684C6.766 11.6667 5.8335 12.5992 5.8335 13.75C5.8335 14.9008 6.766 15.8333 7.91684 15.8333H15.2393L1.6485 26.2642C0.736002 26.965 0.563502 28.2725 1.26433 29.185C1.67433 29.72 2.29267 30 2.9185 30C3.361 30 3.80683 29.86 4.186 29.5692L12.516 23.1758C12.5135 23.2725 12.5002 23.365 12.5002 23.4617C12.5002 29.9758 17.9435 35 25.0002 35C32.0568 35 38.056 29.9758 38.056 23.4617C38.056 19.3958 35.7302 15.6917 32.5002 13.3333Z" fill="url(#paint0_linear_966_2633)"/>
<path d="M25.4165 30C29.9038 30 33.5415 26.6421 33.5415 22.5C33.5415 18.3579 29.9038 15 25.4165 15C20.9292 15 17.2915 18.3579 17.2915 22.5C17.2915 26.6421 20.9292 30 25.4165 30Z" fill="white"/>
<path opacity="0.07" d="M25.4167 15C29.9042 15 33.5417 18.3575 33.5417 22.5C33.5417 26.6425 29.9042 30 25.4167 30C20.9292 30 17.2917 26.6425 17.2917 22.5C17.2917 18.3575 20.9292 15 25.4167 15ZM25.4167 14.5834C20.7067 14.5834 16.875 18.135 16.875 22.5C16.875 26.865 20.7067 30.4167 25.4167 30.4167C30.1267 30.4167 33.9583 26.865 33.9583 22.5C33.9583 18.135 30.1267 14.5834 25.4167 14.5834Z" fill="black"/>
<path opacity="0.05" d="M25.4168 14.5833C30.1268 14.5833 33.9585 18.135 33.9585 22.5C33.9585 26.865 30.1268 30.4166 25.4168 30.4166C20.7068 30.4166 16.8752 26.865 16.8752 22.5C16.8752 18.135 20.7068 14.5833 25.4168 14.5833ZM25.4168 14.1666C20.4768 14.1666 16.4585 17.905 16.4585 22.5C16.4585 27.095 20.4768 30.8333 25.4168 30.8333C30.3568 30.8333 34.3752 27.095 34.3752 22.5C34.3752 17.905 30.3568 14.1666 25.4168 14.1666Z" fill="black"/>
<path d="M25.4168 26.6667C27.9481 26.6667 30.0002 24.8012 30.0002 22.5C30.0002 20.1989 27.9481 18.3334 25.4168 18.3334C22.8855 18.3334 20.8335 20.1989 20.8335 22.5C20.8335 24.8012 22.8855 26.6667 25.4168 26.6667Z" fill="#0370C8"/>
<path opacity="0.05" d="M25.4167 17.9167C28.1733 17.9167 30.4167 19.9725 30.4167 22.5C30.4167 25.0275 28.1733 27.0833 25.4167 27.0833C22.66 27.0833 20.4167 25.0275 20.4167 22.5C20.4167 19.9725 22.66 17.9167 25.4167 17.9167ZM25.4167 17.5C22.43 17.5 20 19.7433 20 22.5C20 25.2567 22.43 27.5 25.4167 27.5C28.4033 27.5 30.8333 25.2567 30.8333 22.5C30.8333 19.7433 28.4033 17.5 25.4167 17.5Z" fill="black"/>
<path opacity="0.07" d="M25.4165 18.3333C27.9482 18.3333 29.9998 20.1991 29.9998 22.5C29.9998 24.8008 27.9482 26.6666 25.4165 26.6666C22.8848 26.6666 20.8332 24.8008 20.8332 22.5C20.8332 20.1991 22.8848 18.3333 25.4165 18.3333ZM25.4165 17.9166C22.6598 17.9166 20.4165 19.9725 20.4165 22.5C20.4165 25.0275 22.6598 27.0833 25.4165 27.0833C28.1732 27.0833 30.4165 25.0275 30.4165 22.5C30.4165 19.9725 28.1732 17.9166 25.4165 17.9166Z" fill="black"/>
<defs>
<linearGradient id="paint0_linear_966_2633" x1="0.833502" y1="19.5833" x2="38.056" y2="19.5833" gradientUnits="userSpaceOnUse">
<stop stop-color="#FFA402"/>
<stop offset="1" stop-color="#FF8800"/>
</linearGradient>
</defs>
</svg>
