<svg width="41" height="40" viewBox="0 0 41 40" fill="none" xmlns="http://www.w3.org/2000/svg">
<g clip-path="url(#clip0_962_626)">
<path d="M39.0833 0H0.75L4.13235 35.7895L19.9167 40L35.701 35.7895L39.0833 0Z" fill="#0277BD"/>
<path d="M20.75 1.66669V38.3334L33.0128 34.6552L35.75 1.66669H20.75Z" fill="#039BE5"/>
<path d="M29.0833 8.33331H20.75V12.5565H25.2372L24.9625 16.7798H20.75V21.003H24.7793L24.5046 25.7541L20.75 27.2323V31.6666L27.9844 28.9215L28.6255 16.7798L29.0833 8.33331Z" fill="white"/>
<path d="M20.75 8.33331V12.5565H11.0761L10.75 8.33331H20.75ZM15.75 16.7798L15.9674 21.003H20.75V16.7798H15.75ZM16.1848 23.1146H11.837L12.163 28.9215L20.75 31.6666V27.2323L16.2935 25.7541L16.1848 23.1146Z" fill="#EEEEEE"/>
</g>
<defs>
<clipPath id="clip0_962_626">
<rect width="40" height="40" fill="white" transform="translate(0.75)"/>
</clipPath>
</defs>
</svg>
