<svg width="27" height="40" viewBox="0 0 27 40" fill="none" xmlns="http://www.w3.org/2000/svg">
<g clip-path="url(#clip0_963_2626)">
<path d="M6.91667 40C10.5951 40 13.5833 37.0149 13.5833 33.3333V26.6666H6.91667C3.23828 26.6666 0.25 29.6517 0.25 33.3333C0.25 37.0149 3.23828 40 6.91667 40Z" fill="#0ACF83"/>
<path d="M0.25 20C0.25 16.3217 3.23828 13.3334 6.91667 13.3334H13.5833V26.6667H6.91667C3.23828 26.6667 0.25 23.6817 0.25 20Z" fill="#A259FF"/>
<path d="M0.25 6.66667C0.25 2.98828 3.23828 0 6.91667 0H13.5833V13.3333H6.91667C3.23828 13.3333 0.25 10.3483 0.25 6.66667Z" fill="#F24E1E"/>
<path d="M13.5835 0H20.2502C23.9285 0 26.9168 2.98828 26.9168 6.66667C26.9168 10.3483 23.9318 13.3333 20.2502 13.3333H13.5835V0Z" fill="#FF7262"/>
<path d="M26.9168 20C26.9168 23.6817 23.9318 26.6667 20.2502 26.6667C16.5685 26.6667 13.5835 23.6817 13.5835 20C13.5835 16.3217 16.5685 13.3334 20.2502 13.3334C23.9318 13.3334 26.9168 16.3217 26.9168 20Z" fill="#1ABCFE"/>
</g>
<defs>
<clipPath id="clip0_963_2626">
<rect width="26.6667" height="40" fill="white" transform="translate(0.25)"/>
</clipPath>
</defs>
</svg>
