<svg width="40" height="40" viewBox="0 0 40 40" fill="none" xmlns="http://www.w3.org/2000/svg">
<g clip-path="url(#clip0_962_745)">
<path d="M20 0.625C9.25 0.625 0.625 9.25 0.625 20C0.625 30.75 9.25 39.375 20 39.375C30.75 39.375 39.375 30.75 39.375 20C39.375 9.25 30.75 0.625 20 0.625ZM4.75 20.1875L19.75 35.1875C11.5625 35.125 4.875 28.4375 4.75 20.1875ZM23.4375 34.8125L5.1875 16.5625C6.8125 9.8125 12.75 4.75 20 4.75C25 4.75 29.5 7.1875 32.3125 11L30.1875 12.875C28 9.625 24.1875 7.5625 20 7.5625C14.625 7.5625 10.0625 11 8.3125 15.75L24.25 31.6875C28.125 30.25 31.125 27 32.0625 22.9375H25.4375V20H35.1875C35.25 27.25 30.125 33.3125 23.4375 34.8125Z" fill="#7753A1"/>
</g>
<defs>
<clipPath id="clip0_962_745">
<rect width="40" height="40" fill="white"/>
</clipPath>
</defs>
</svg>
