<svg width="41" height="40" viewBox="0 0 41 40" fill="none" xmlns="http://www.w3.org/2000/svg">
<g clip-path="url(#clip0_962_753)">
<path d="M39.7427 18.2173L22.2827 0.752942C21.2771 -0.252608 19.6447 -0.252608 18.6392 0.752942L15.0131 4.37902L19.6143 8.98017C20.6851 8.61887 21.9083 8.86264 22.7615 9.71148C23.6191 10.569 23.8585 11.8053 23.4885 12.8761L27.9242 17.3075C28.9951 16.9375 30.2357 17.1769 31.0932 18.0345C32.2903 19.2316 32.2903 21.173 31.0932 22.3701C29.8961 23.5672 27.9547 23.5672 26.7576 22.3701C25.8565 21.469 25.6345 20.1457 26.0916 19.0357L21.9562 14.9003V25.7829C22.2479 25.9265 22.5221 26.1181 22.7659 26.3618C23.9629 27.5589 23.9629 29.5004 22.7659 30.6974C21.5688 31.8945 19.6273 31.8945 18.4302 30.6974C17.2332 29.5004 17.2332 27.5589 18.4302 26.3618C18.7262 26.0658 19.0701 25.8438 19.4358 25.6915V14.7088C19.0701 14.5608 18.7306 14.3387 18.4302 14.0384C17.5248 13.133 17.3072 11.8009 17.7686 10.6866L13.2327 6.1507L1.25319 18.1346C0.247636 19.1401 0.247636 20.7725 1.25319 21.7781L18.7175 39.2424C19.7231 40.248 21.3555 40.248 22.361 39.2424L39.7427 21.8608C40.7482 20.8552 40.7482 19.2228 39.7427 18.2173Z" fill="#F1563A"/>
</g>
<defs>
<clipPath id="clip0_962_753">
<rect width="40" height="40" fill="white" transform="translate(0.5)"/>
</clipPath>
</defs>
</svg>
