<svg width="40" height="40" viewBox="0 0 40 40" fill="none" xmlns="http://www.w3.org/2000/svg">
<path d="M20.0002 1.59998C18.2306 1.59998 16.8002 3.03038 16.8002 4.79998C16.8002 5.05572 16.839 5.30076 16.8955 5.53904L8.75644 9.84841C8.17162 9.20807 7.33741 8.79998 6.4002 8.79998C4.6306 8.79998 3.2002 10.2304 3.2002 12C3.2002 13.4841 4.22127 14.7279 5.6002 15.0859V24.914C4.22133 25.2703 3.2002 26.5085 3.2002 28C3.2002 29.7608 4.6306 31.2 6.4002 31.2C7.33741 31.2 8.17162 30.7919 8.75644 30.1515L16.8955 34.4609C16.839 34.6992 16.8002 34.9442 16.8002 35.2C16.8002 36.9696 18.2306 38.4 20.0002 38.4C21.7698 38.4 23.2002 36.9608 23.2002 35.2C23.2002 34.9442 23.1613 34.6992 23.1049 34.4609L31.2439 30.1515C31.8288 30.7919 32.663 31.2 33.6002 31.2C35.3698 31.2 36.8002 29.7608 36.8002 28C36.8002 26.5085 35.7791 25.2703 34.4002 24.914V15.0859C35.7791 14.7279 36.8002 13.4841 36.8002 12C36.8002 10.2304 35.3698 8.79998 33.6002 8.79998C32.663 8.79998 31.8288 9.20807 31.2439 9.84841L23.1049 5.53904C23.1616 5.30078 23.2002 5.05514 23.2002 4.79998C23.2002 3.03038 21.7698 1.59998 20.0002 1.59998ZM17.6439 6.95154C17.6784 6.98927 17.7062 7.03268 17.7424 7.06873L7.26895 24.9344C7.24573 24.9278 7.22363 24.9185 7.2002 24.9125V15.0859C8.57906 14.7297 9.60019 13.4914 9.60019 12C9.60019 11.7442 9.56134 11.4992 9.50488 11.2609L17.6439 6.95154ZM22.3549 6.95154L30.4955 11.2609C30.439 11.4992 30.4002 11.7442 30.4002 12C30.4002 13.4914 31.4213 14.7297 32.8002 15.0859V24.9125C32.7768 24.9185 32.7547 24.9278 32.7314 24.9344L22.2564 7.06716C22.2923 7.03143 22.3207 6.98893 22.3549 6.95154ZM20.8689 7.86404L31.3424 25.7312C30.9427 26.1289 30.6598 26.6365 30.5143 27.2H9.48613C9.34055 26.6365 9.05766 26.1289 8.65801 25.7312L19.1314 7.8656C19.4093 7.94416 19.6969 7.99998 20.0002 7.99998C20.3036 7.99998 20.591 7.94303 20.8689 7.86404ZM9.62051 28.8H30.3799L22.3564 33.0484C21.7716 32.4081 20.9374 32 20.0002 32C19.063 32 18.2288 32.4081 17.6439 33.0484L9.62051 28.8Z" fill="#E63CAE"/>
</svg>
