<svg width="41" height="40" viewBox="0 0 41 40" fill="none" xmlns="http://www.w3.org/2000/svg">
<g clip-path="url(#clip0_961_1298)">
<path d="M40.7498 0H2.4165L5.79886 35.0114L21.5832 39.1304L37.3675 35.0114L40.7498 0Z" fill="#E65100"/>
<path d="M22.4165 1.63043V37.5L34.6793 33.9018L37.4165 1.63043H22.4165Z" fill="#FF6D00"/>
<path d="M22.4165 20.6866V15.965H31.7643L31.0035 29.5396L22.4165 32.6087V27.651L26.873 25.9984L27.1991 20.6866H22.4165ZM32.0904 11.2434L32.4165 6.52173H22.4165V11.2434H32.0904Z" fill="white"/>
<path d="M22.4167 27.651V32.6087L12.2885 29.5396L11.7756 23.0474H16.9038L17.1603 25.9984L22.4167 27.651ZM16.1346 11.2434H22.4167V6.52173H10.75L11.6474 20.6866H22.4167V15.965H16.5192L16.1346 11.2434Z" fill="#EEEEEE"/>
</g>
<defs>
<clipPath id="clip0_961_1298">
<rect width="40" height="39.1304" fill="white" transform="translate(0.75)"/>
</clipPath>
</defs>
</svg>
