<svg width="42" height="40" viewBox="0 0 42 40" fill="none" xmlns="http://www.w3.org/2000/svg">
<g clip-path="url(#clip0_963_2758)">
<path d="M34.2609 0H7.76507C3.75268 0 0.5 3.25268 0.5 7.26507V32.7349C0.5 36.7473 3.75268 40 7.76507 40H34.2609C38.2733 40 41.5259 36.7473 41.5259 32.7349V7.26507C41.5259 3.25268 38.2733 0 34.2609 0Z" fill="#330000"/>
<path d="M20.3804 24.0051H14.0225L12.7295 28.023C12.7124 28.0967 12.6699 28.1619 12.6094 28.2072C12.549 28.2526 12.4745 28.2751 12.399 28.2709H9.17917C8.99521 28.2709 8.93104 28.1698 8.98665 27.9677L14.491 12.1124C14.5445 11.9472 14.5996 11.76 14.6562 11.5509C14.7277 11.1835 14.7645 10.8102 14.7661 10.4359C14.7629 10.4138 14.764 10.3912 14.7695 10.3695C14.775 10.3478 14.7847 10.3274 14.7982 10.3095C14.8116 10.2916 14.8284 10.2766 14.8477 10.2652C14.867 10.2539 14.8884 10.2464 14.9105 10.2434C14.9265 10.241 14.9427 10.241 14.9587 10.2434H19.3344C19.4627 10.2434 19.5357 10.2891 19.555 10.3806L25.8021 27.995C25.8575 28.1779 25.8021 28.2701 25.6369 28.2701H22.0593C21.9979 28.2769 21.9361 28.2612 21.8854 28.2257C21.8348 28.1903 21.7988 28.1376 21.7841 28.0776L20.3804 24.0051ZM15.014 20.535H19.3617C19.252 20.1676 19.1237 19.7547 18.9766 19.2965C18.8296 18.8382 18.6737 18.3472 18.509 17.8237L18.0132 16.2555C17.848 15.7325 17.6967 15.2277 17.5592 14.741C17.4218 14.2544 17.2969 13.8106 17.1846 13.4095H17.1573C17.0023 14.1526 16.8093 14.8872 16.579 15.6106C16.3223 16.4368 16.0608 17.2809 15.7945 18.143C15.5282 19.005 15.268 19.8023 15.014 20.535Z" fill="#FF9A00"/>
<path d="M29.5169 13.1617C29.2362 13.1728 28.9563 13.1247 28.6955 13.0203C28.4347 12.916 28.1988 12.7578 28.0033 12.556C27.8083 12.3455 27.6569 12.0985 27.5577 11.8292C27.4586 11.56 27.4138 11.2737 27.4257 10.987C27.4162 10.7038 27.4664 10.4217 27.5731 10.1591C27.6798 9.89648 27.8406 9.6593 28.045 9.46296C28.2474 9.26864 28.4863 9.11629 28.7479 9.0147C29.0094 8.9131 29.2885 8.86425 29.5691 8.87097C30.2295 8.87097 30.7477 9.0683 31.1236 9.46296C31.505 9.87673 31.7069 10.4247 31.6851 10.987C31.6967 11.2749 31.6503 11.5622 31.5486 11.8317C31.4469 12.1012 31.292 12.3476 31.0931 12.556C30.8862 12.76 30.6394 12.9191 30.3682 13.0233C30.097 13.1275 29.8072 13.1746 29.5169 13.1617ZM27.6182 27.995V14.8398C27.6182 14.6745 27.6912 14.5919 27.838 14.5919H31.2223C31.3683 14.5919 31.4421 14.6721 31.4421 14.8398V27.995C31.4421 28.1779 31.3691 28.2702 31.2223 28.2702H27.8661C27.7009 28.271 27.6182 28.1787 27.6182 27.995Z" fill="#FF9A00"/>
</g>
<defs>
<clipPath id="clip0_963_2758">
<rect width="41.0259" height="40" fill="white" transform="translate(0.5)"/>
</clipPath>
</defs>
</svg>
