<svg width="41" height="40" viewBox="0 0 41 40" fill="none" xmlns="http://www.w3.org/2000/svg">
<g clip-path="url(#clip0_962_640)">
<path d="M0.75 40V0H40.75V40H0.75Z" fill="#FBF094"/>
<path d="M27.4615 30.3504C28.2756 31.7554 29.1603 33.1017 31.0344 33.1017C32.6085 33.1017 33.4344 32.2704 33.4344 31.1204C33.4344 29.7442 32.5803 29.2554 30.8485 28.4542L29.8991 28.0242C27.1592 26.7892 25.3368 25.2417 25.3368 21.9729C25.3368 18.9604 27.5074 16.6679 30.8991 16.6679C33.3144 16.6679 35.0496 17.5567 36.3014 19.8842L33.3438 21.8929C32.6932 20.6579 31.9897 20.1717 30.8991 20.1717C29.7862 20.1717 29.0815 20.9179 29.0815 21.8929C29.0815 23.0979 29.7874 23.5854 31.4168 24.3317L32.3662 24.7617C35.5955 26.2229 37.4167 27.7154 37.4167 31.0704C37.4167 34.6854 34.7297 36.6667 31.1226 36.6667C27.5945 36.6667 25.591 34.7854 24.4757 32.4567L27.4615 30.3504ZM13.8311 30.4529C14.4264 31.5854 15.3311 32.4567 16.6323 32.4567C17.877 32.4567 18.5934 31.9342 18.5934 29.9029V16.6667H22.5145V30.5429C22.5145 34.7517 20.2169 36.6667 16.8617 36.6667C13.83 36.6667 11.6418 34.4842 10.75 32.4567L13.8311 30.4529Z" fill="#000001"/>
</g>
<defs>
<clipPath id="clip0_962_640">
<rect width="40" height="40" fill="white" transform="translate(0.75)"/>
</clipPath>
</defs>
</svg>
