<svg width="40" height="40" viewBox="0 0 40 40" fill="none" xmlns="http://www.w3.org/2000/svg">
<path d="M0.833496 4.16663L5.8335 7.49996V24.1666L0.833496 20.8333V4.16663Z" fill="#29B6F6"/>
<path d="M39.1665 16.6666L34.1665 20V30.8333L39.1665 27.5V16.6666Z" fill="#0288D1"/>
<path d="M39.1665 5L34.1665 8.33333V14.1667L39.1665 10.8333V5Z" fill="#0288D1"/>
<path d="M29.1665 4.16663L24.1665 7.49996V24.1666L29.1665 20.8333V4.16663Z" fill="#0288D1"/>
<path d="M0.833496 9.99996L15.0002 19.1666V13.3333L0.833496 4.16663V9.99996Z" fill="#29B6F6"/>
<path d="M29.1667 9.99996L15 19.1666V13.3333L29.1667 4.16663V9.99996Z" fill="#0288D1"/>
<path d="M29.1667 21.6667L15 30.8334V25L29.1667 15.8334V21.6667Z" fill="#0288D1"/>
<path d="M39.1667 28.3333L25 37.5V31.6667L39.1667 22.5V28.3333Z" fill="#0288D1"/>
<path d="M25 31.4708L15 25V30.8333L25 37.3042V31.4708Z" fill="#29B6F6"/>
</svg>
