<svg width="41" height="40" viewBox="0 0 41 40" fill="none" xmlns="http://www.w3.org/2000/svg">
<g clip-path="url(#clip0_962_737)">
<mask id="mask0_962_737" style="mask-type:luminance" maskUnits="userSpaceOnUse" x="0" y="0" width="41" height="40">
<path d="M40.75 0H0.75V40H40.75V0Z" fill="white"/>
</mask>
<g mask="url(#mask0_962_737)">
<path d="M19.4401 0.0107641C19.3541 0.0185831 19.0804 0.0459496 18.8341 0.0654969C13.1528 0.577641 7.83112 3.64268 4.46066 8.35363C2.58382 10.973 1.38343 13.9442 0.929863 17.0913C0.76955 18.1899 0.75 18.5144 0.75 20.0039C0.75 21.4934 0.76955 21.8179 0.929863 22.9165C2.01686 30.4266 7.36194 36.7366 14.6112 39.0744C15.9093 39.4927 17.2779 39.7781 18.8341 39.9501C19.4401 40.0166 22.0599 40.0166 22.6659 39.9501C25.3521 39.6531 27.6278 38.9884 29.8722 37.8429C30.2163 37.667 30.2827 37.6201 30.2358 37.581C30.2046 37.5576 28.7383 35.5911 26.9788 33.2141L23.7803 28.8941L19.7725 22.9634C17.5672 19.7029 15.7529 17.0366 15.7373 17.0366C15.7216 17.0327 15.706 19.6677 15.6982 22.8852C15.6864 28.5188 15.6826 28.7456 15.6122 28.8784C15.5105 29.0701 15.4323 29.1482 15.2681 29.2342C15.1429 29.2968 15.0335 29.3085 14.4431 29.3085H13.7666L13.5868 29.1951C13.4694 29.1209 13.3834 29.0231 13.3247 28.9097L13.2427 28.7338L13.2505 20.8953L13.2622 13.0528L13.3834 12.9004C13.446 12.8182 13.5789 12.7127 13.6727 12.6619C13.8331 12.5837 13.8956 12.5759 14.5721 12.5759C15.3697 12.5759 15.5027 12.6071 15.7099 12.8339C15.7686 12.8964 17.9387 16.1648 20.5349 20.1016C23.1312 24.0385 26.6816 29.4141 28.4254 32.053L31.5926 36.8499L31.7529 36.7444C33.1723 35.8218 34.6738 34.5081 35.8624 33.1398C38.3923 30.2351 40.0228 26.6931 40.5701 22.9165C40.7304 21.8179 40.75 21.4934 40.75 20.0039C40.75 18.5144 40.7304 18.1899 40.5701 17.0913C39.4831 9.58119 34.1381 3.27128 26.8888 0.933406C25.6102 0.518998 24.2495 0.233605 22.7246 0.0615876C22.3492 0.0224926 19.7647 -0.0205118 19.4401 0.0107641ZM27.6278 12.1068C27.8155 12.2006 27.968 12.3804 28.0227 12.5681C28.054 12.6697 28.0618 14.8434 28.054 19.742L28.0422 26.7712L26.8028 24.8713L25.5594 22.9713V17.8615C25.5594 14.558 25.575 12.701 25.5985 12.6111C25.6611 12.3921 25.7979 12.2201 25.9856 12.1184C26.1459 12.0364 26.2046 12.0286 26.8184 12.0286C27.3971 12.0286 27.4988 12.0364 27.6278 12.1068Z" fill="#212121"/>
</g>
</g>
<defs>
<clipPath id="clip0_962_737">
<rect width="40" height="40" fill="white" transform="translate(0.75)"/>
</clipPath>
</defs>
</svg>
