<svg width="33" height="40" viewBox="0 0 33 40" fill="none" xmlns="http://www.w3.org/2000/svg">
<path d="M17.8241 23.7354H13.3262V28.1825H17.8241V23.7354Z" fill="#CC5B81"/>
<path d="M10.9397 15.4458L14.0544 20.3955C14.7103 21.4376 15.2244 21.2848 15.2008 20.0532L15.0987 14.5764C14.5608 14.3878 14.1681 13.8861 14.1569 13.2815C14.141 12.5064 14.7589 11.8664 15.5336 11.8518C16.3092 11.8376 16.9496 12.4542 16.9638 13.2294C16.9745 13.8323 16.6007 14.3503 16.0711 14.5566L16.1718 20.0433C16.1947 21.2757 16.7179 21.4118 17.3401 20.3477L20.2956 15.2904C20.5703 14.8292 20.6741 14.0351 20.5303 13.5183L18.843 8.49503L19.5209 8.48297C19.9691 8.47392 20.3257 8.10487 20.3167 7.6583C20.3068 7.21002 19.9394 6.85432 19.4907 6.86337L18.5149 6.88188L18.9102 2.18283C19.0136 0.953807 18.0972 -0.0224313 16.8656 0.000392169L13.8873 0.0550884C12.6544 0.0779119 11.7579 1.08989 11.8849 2.31632L12.3681 6.99514L11.3918 7.01495C10.9453 7.02227 10.5896 7.39046 10.5986 7.83917C10.6072 8.28574 10.9754 8.6423 11.4224 8.63369L11.9792 8.62378L10.5921 13.6992C10.4772 14.2224 10.6322 15.0049 10.9397 15.4458Z" fill="#CC5B81"/>
<path d="M32.6227 24.7525V21.0857H28.9563V22.3617H3.91639V21.0857H0.25V24.7525H3.91639V23.4783H12.7809V25.3115C10.8569 26.0108 2.48498 29.5446 1.63577 38.1495H1.15992V39.9999H3.00905V38.1495H2.77092C3.58223 30.712 10.5279 27.3897 12.7827 26.5048V28.5429H18.4536V26.565C20.8583 27.5331 27.5184 30.8653 28.3108 38.1495H28.0391V39.9999H29.8895V38.1495H29.4455C28.6157 29.7642 20.6413 26.1908 18.4541 25.3683V23.4766H28.9585V24.7525H32.6227ZM17.337 27.4285H13.8976V23.9894H17.337V27.4285Z" fill="white"/>
</svg>
