<svg width="41" height="40" viewBox="0 0 41 40" fill="none" xmlns="http://www.w3.org/2000/svg">
<g clip-path="url(#clip0_962_733)">
<path d="M33 14.1248C32.5625 14.0623 32.1875 13.8748 31.75 13.7498C31.8125 13.4998 31.8125 13.2498 31.9375 12.8748C32.8125 8.37475 32.1875 4.81228 30.1875 3.56228C28.1875 2.43728 24.9375 3.62478 21.6875 6.43725C21.4375 6.68725 21 6.93725 20.75 7.31225C20.5625 7.12475 20.3125 6.93725 20.125 6.68725C16.6875 3.62478 13.3125 2.37478 11.1875 3.56228C9.1875 4.68728 8.5625 8.12475 9.4375 12.3123C9.5 12.7498 9.625 13.1873 9.6875 13.5623C9.25 13.6248 8.75 13.8123 8.3125 13.9998C4.25 15.4373 1.375 17.7498 1.375 19.9373C1.375 22.3123 4.4375 24.6873 8.625 26.0623C9 26.1248 9.3125 26.3123 9.6875 26.3123C9.625 26.7498 9.4375 27.1873 9.4375 27.6873C8.625 31.8123 9.25 35.1248 11.25 36.2498C13.25 37.4998 16.75 36.2498 20 33.2498C20.25 32.9998 20.5 32.8123 20.8125 32.5623C21.0625 32.8123 21.5 33.1873 21.875 33.4373C25 36.2498 28.25 37.3748 30.3125 36.2498C32.3125 34.9998 33 31.4998 32.125 27.1248C32.0625 26.8748 32.0625 26.4373 31.875 26.0623C32.125 25.9998 32.3125 25.9998 32.5625 25.8123C36.9375 24.4998 40.125 22.1248 40.125 19.7498C40.0625 17.8123 37.0625 15.5623 33 14.1248ZM22.75 7.74975C25.5625 5.31228 28.1875 4.43728 29.4375 5.06228C30.6875 5.74978 31.1875 8.74975 30.375 12.6873C30.3125 12.9373 30.3125 13.1248 30.1875 13.4998C28.5 13.1248 26.875 12.8123 25.125 12.6873C24.1875 11.3123 23.125 9.87475 22 8.74975C22.25 8.24975 22.5 7.99975 22.75 7.74975ZM14.0625 23.9373C14.4375 24.6248 14.875 25.2498 15.3125 25.8748C14.0625 25.8123 12.9375 25.6248 11.8125 25.3748C12.0625 24.3123 12.5 23.1873 13.0625 22.0623C13.3125 22.6248 13.75 23.3748 14.0625 23.9373ZM11.8125 14.9373C12.875 14.6873 14 14.4998 15.25 14.3123C14.8125 14.9373 14.4375 15.5623 14.125 16.2498C13.8125 16.9373 13.4375 17.4998 13.0625 18.2498C12.5 17.0623 12.1875 15.9998 11.8125 14.9373ZM13.8125 20.1248C14.25 19.0623 14.875 18.1248 15.5 17.0623C16.125 15.9998 16.75 15.0623 17.3125 14.0623C18.4375 13.9998 19.5625 13.9998 20.75 13.9998C21.875 13.9998 23.125 14.0623 24.1875 14.0623C24.875 14.9998 25.4375 15.9998 26 16.9373C26.625 17.8748 27.125 18.9373 27.6875 19.9998C27.25 21.0623 26.625 21.9998 26 23.0623C25.375 24.1248 24.75 25.0623 24.1875 26.0623C23.0625 26.1248 21.9375 26.1248 20.6875 26.1248C19.4375 26.1248 18.3125 26.0623 17.25 26.0623C16.5625 25.1248 16 24.1248 15.4375 23.0623C14.875 21.9998 14.375 21.1873 13.8125 20.1248ZM27.4375 23.9373C27.8125 23.2498 28.125 22.6248 28.5 21.9373C28.9375 22.9998 29.375 24.1248 29.75 25.2498C28.625 25.4998 27.375 25.6873 26.125 25.8748C26.625 25.2498 27.0625 24.5623 27.4375 23.9373ZM28.5625 18.1873C28.1875 17.4998 27.875 16.8748 27.5 16.1873C27.125 15.4998 26.6875 14.9373 26.375 14.3748C27.625 14.5623 28.75 14.7498 29.8125 14.9998C29.4375 16.0623 29 17.1248 28.5625 18.1873ZM20.75 9.74975C21.5625 10.6248 22.25 11.4998 22.9375 12.4373C21.4375 12.3748 19.9375 12.3748 18.4375 12.4373C19.25 11.4373 20.0625 10.5623 20.75 9.74975ZM12 5.12478C13.25 4.43728 16.125 5.37478 19 8.12475C19.1875 8.31225 19.375 8.49975 19.625 8.62475C18.5 9.87475 17.4375 11.2498 16.375 12.5623C14.6875 12.7498 12.9375 12.9998 11.3125 13.3748C11.25 12.9998 11.125 12.5623 11.0625 12.2498C10.375 8.56225 10.8125 5.81228 12 5.12478ZM10.25 24.9998C10 24.9373 9.625 24.8123 9.3125 24.7498C7.625 24.3123 5.875 23.4373 4.5 22.3748C3.625 21.7498 3.1875 20.9998 3 20.1248C3 18.7498 5.4375 16.9998 8.875 15.7498C9.3125 15.5623 9.75 15.4998 10.1875 15.3123C10.6875 16.9998 11.3125 18.5623 12 20.1248C11.375 21.6873 10.6875 23.2498 10.25 24.9998ZM18.9375 32.3123C17.6875 33.4373 16.25 34.3123 14.625 34.9373C13.75 35.3748 12.8125 35.3748 12 34.9998C10.75 34.3123 10.3125 31.6873 10.9375 28.0623C11 27.6248 11.125 27.1873 11.1875 26.8123C12.875 27.1873 14.625 27.4373 16.25 27.4998C17.1875 28.8748 18.375 30.3123 19.5 31.5623C19.4375 31.9373 19.1875 32.1248 18.9375 32.3123ZM20.8125 30.5623C20 29.6873 19.3125 28.8123 18.5625 27.8748C19.25 27.8748 19.9375 27.9373 20.75 27.9373C21.5625 27.9373 22.3125 27.9373 23 27.8748C22.3125 28.6873 21.625 29.5623 20.8125 30.5623ZM30.6875 32.7498C30.625 33.6248 30.1875 34.5623 29.4375 35.1248C28.1875 35.8123 25.6875 34.9373 22.9375 32.4998C22.6875 32.2498 22.3125 31.9998 22 31.6248C23.125 30.3748 24.1875 28.9998 25.125 27.5623C26.875 27.4998 28.5625 27.1248 30.1875 26.7498C30.25 26.9998 30.25 27.3748 30.375 27.6248C30.8125 29.3748 30.8125 31.1248 30.6875 32.7498ZM32.0625 24.6873C31.875 24.7498 31.625 24.7498 31.375 24.8748C30.875 23.1873 30.125 21.6248 29.4375 20.0623C30.125 18.5623 30.75 16.9373 31.25 15.3123C31.6875 15.3748 32.0625 15.5623 32.375 15.6873C35.875 16.9373 38.3125 18.6873 38.3125 20.0623C38.375 21.4998 35.8125 23.4373 32.0625 24.6873ZM20.75 23.4998C22.6875 23.4998 24.1875 21.9373 24.1875 20.0623C24.1875 18.1873 22.625 16.6248 20.75 16.6248C18.9375 16.6248 17.3125 18.1873 17.3125 20.0623C17.3125 21.9373 18.8125 23.4998 20.75 23.4998Z" fill="#369BAF"/>
</g>
<defs>
<clipPath id="clip0_962_733">
<rect width="40" height="40" fill="white" transform="translate(0.75)"/>
</clipPath>
</defs>
</svg>
