<svg width="41" height="40" viewBox="0 0 41 40" fill="none" xmlns="http://www.w3.org/2000/svg">
<path d="M20.5001 1.59998C10.3545 1.59998 2.1001 9.85438 2.1001 20C2.1001 30.1456 10.3545 38.4 20.5001 38.4C30.6457 38.4 38.9001 30.1456 38.9001 20C38.9001 9.85438 30.6457 1.59998 20.5001 1.59998ZM25.0188 7.20154C28.0771 7.15066 30.5982 8.26378 31.1251 10.3312C31.8795 13.2888 29.3123 16.8257 26.0251 18.0969C23.0899 19.232 20.6633 19.0537 19.6657 18.7265C18.5321 18.3545 17.8679 17.606 17.7063 17.1844C17.6431 17.0188 17.5327 16.7429 17.7063 16.6469C17.8127 16.5877 17.8544 16.6012 18.1392 16.9156C18.4104 17.214 19.4985 18.0164 21.5657 17.7844C26.9921 17.1764 30.2595 12.9594 29.2267 10.6906C28.5035 9.1026 24.3218 8.3874 19.097 10.9906C12.7186 14.169 12.3732 16.7892 12.3188 17.7844C12.1692 20.5212 15.6968 21.9609 17.6048 23.9969C17.6496 24.0449 17.6928 24.0934 17.736 24.1422C18.3136 23.927 19.1133 23.806 20.3845 23.7844C23.4709 23.7316 25.2143 25.7652 25.1423 27.5844C25.0863 29.0172 23.7715 29.6076 23.5267 29.6484C23.3491 29.6788 23.2515 29.6845 23.2267 29.5453C23.2091 29.4493 23.2733 29.4046 23.4813 29.275C23.6893 29.1462 24.3123 28.7205 24.4235 27.9437C24.5347 27.1677 23.9533 25.312 20.9829 24.9656C19.9301 24.8424 19.1011 24.926 18.3907 25.114C18.9059 26.2492 19.0052 28.5335 17.8204 30.3015C16.5924 32.1335 14.307 33.2465 12.0798 32.6265C11.3614 32.4265 10.2742 30.9423 11.211 28.8719C12.099 26.9095 15.8919 24.9896 16.4095 24.7344V24.725C14.6519 23.2122 10.3775 21.1731 9.7751 18.0531C9.6039 17.1691 10.0181 15.0515 12.6173 12.6203C14.8037 10.5755 17.8452 9.01008 20.6532 8.01248C22.128 7.48848 23.6287 7.22466 25.0188 7.20154ZM17.1392 25.6578C17.0872 25.6866 17.0357 25.715 16.9845 25.7422L16.986 25.7484C16.986 25.7484 15.221 26.5813 13.9938 27.8781C12.853 29.0837 12.536 30.5968 13.172 30.9656C13.7616 31.3072 15.1348 30.9025 16.1188 29.8297C16.4412 29.4777 16.7049 29.0962 16.9017 28.689C16.9409 28.6074 16.9774 28.5254 17.011 28.4422C17.0446 28.359 17.0768 28.2746 17.1048 28.189C17.3592 27.4194 17.3856 26.569 17.1392 25.6578Z" fill="#CE6B9C"/>
</svg>
