<svg width="41" height="40" viewBox="0 0 41 40" fill="none" xmlns="http://www.w3.org/2000/svg">
<path fill-rule="evenodd" clip-rule="evenodd" d="M11.4911 16.25C12.7216 11.2502 15.7989 8.75 20.7218 8.75C28.1064 8.75 29.0295 14.375 32.7218 15.3125C35.1835 15.9377 37.3372 15.0002 39.1834 12.5C37.9527 17.4998 34.8754 20 29.9526 20C22.5679 20 21.6449 14.375 17.9526 13.4375C15.4909 12.8123 13.3372 13.7498 11.4911 16.25ZM2.26025 27.5C3.49082 22.5002 6.56813 20 11.4911 20C18.8756 20 19.7987 25.625 23.4911 26.5625C25.9527 27.1877 28.1064 26.2502 29.9526 23.75C28.722 28.7498 25.6447 31.25 20.7218 31.25C13.3372 31.25 12.4141 25.625 8.72181 24.6875C6.26005 24.0623 4.1064 24.9998 2.26025 27.5Z" fill="#19B7D5"/>
</svg>
