<svg width="40" height="40" viewBox="0 0 40 40" fill="none" xmlns="http://www.w3.org/2000/svg">
<g clip-path="url(#clip0_963_2790)">
<path d="M39.896 0H-0.104004V40H39.896V0Z" fill="#1976D2"/>
<path d="M24.8958 17.5H9.0625V21.2778H14.7414V38.3333H19.2408V21.2778H24.8958V17.5Z" fill="white"/>
<path d="M37.3185 22.229C37.3185 22.229 35.3509 20.8459 33.1268 20.8459C30.9027 20.8459 30.1023 21.9598 30.1023 23.1504C30.1023 26.223 38.229 25.9155 38.229 32.0992C38.229 41.6246 25.838 37.3997 25.838 37.3997V32.8302C25.838 32.8302 28.2074 34.7123 31.0492 34.7123C33.8909 34.7123 33.783 32.7536 33.783 32.4844C33.783 29.6426 25.729 29.6426 25.729 23.343C25.729 14.7783 37.4638 18.1573 37.4638 18.1573L37.3185 22.229Z" fill="white"/>
</g>
<defs>
<clipPath id="clip0_963_2790">
<rect width="40" height="40" fill="white"/>
</clipPath>
</defs>
</svg>
