<svg width="41" height="40" viewBox="0 0 41 40" fill="none" xmlns="http://www.w3.org/2000/svg">
<path d="M37.6132 3.13342H3.84033V37.4126H37.6132V3.13342Z" fill="white"/>
<path d="M8.0583 4.12663C8.0583 5.58606 6.87467 6.7691 5.41581 6.7691C3.95695 6.7691 2.77393 5.58606 2.77393 4.12663C2.77393 2.66777 3.95753 1.48474 5.41581 1.48474C6.87467 1.48417 8.0583 2.6672 8.0583 4.12663Z" fill="white"/>
<path d="M12.5412 4.12663C12.5412 5.58606 11.3582 6.7691 9.89872 6.7691C8.43986 6.7691 7.25684 5.58606 7.25684 4.12663C7.25684 2.66777 8.43986 1.48474 9.89872 1.48474C11.3587 1.48417 12.5412 2.6672 12.5412 4.12663Z" fill="white"/>
<path d="M16.9024 4.12663C16.9024 5.58606 15.7194 6.7691 14.2605 6.7691C12.8011 6.7691 11.6187 5.58606 11.6187 4.12663C11.6187 2.66777 12.8017 1.48474 14.2605 1.48474C15.7188 1.48417 16.9024 2.6672 16.9024 4.12663Z" fill="white"/>
<path d="M28.9407 26.9831C28.8099 25.7307 28.1619 24.6004 27.3132 23.7511C25.8136 22.2498 24.563 22.6254 23.6884 23.625C22.6883 24.6251 22.4377 25.7502 23.9373 27.2503C24.6719 27.9838 25.676 28.1495 26.5253 28.376C27.409 28.6129 28.1247 28.9151 28.1877 29.9995C28.8375 28.9701 29.0405 27.9413 28.9407 26.9831Z" fill="#4D3E43"/>
<path d="M23.5617 23.2507C24.0618 22.7501 24.1874 22.0006 23.6885 21.3755C22.9378 20.2504 12.4379 11.1251 12.4379 11.1251C11.9379 10.625 11.1878 10.5006 10.9378 10.8756C10.6883 11.1251 10.8133 11.8751 11.1884 12.3758C11.1884 12.3758 18.3135 21.1255 21.4382 23.6263C22.0639 24.0013 22.8134 24.0013 23.314 23.4996L23.5617 23.2507Z" fill="#4D3E43"/>
<path d="M36.3127 0H3.8123C1.68709 0 0.0625 1.62516 0.0625 3.7498V36.2502C0.0625 38.3748 1.68709 40.0005 3.8123 40.0005H36.3127C38.4373 40.0005 40.0625 38.3748 40.0625 36.2502V3.7498C40.0625 1.62516 38.4373 0 36.3127 0ZM14.0627 2.62526C14.8128 2.62526 15.5624 3.25034 15.5624 4.12485C15.5624 4.99936 14.9373 5.625 14.0627 5.625C13.3127 5.625 12.5626 4.99994 12.5626 4.12485C12.562 3.25034 13.1877 2.62526 14.0627 2.62526ZM9.81233 2.62526C10.5624 2.62526 11.3125 3.25034 11.3125 4.12485C11.3125 4.99936 10.688 5.625 9.81233 5.625C8.93667 5.625 8.31276 4.99994 8.31276 4.12485C8.31219 3.25034 9.06226 2.62526 9.81233 2.62526ZM5.6875 2.62526C6.43757 2.62526 7.18707 3.25034 7.18707 4.12485C7.18707 4.99936 6.56201 5.625 5.6875 5.625C4.81299 5.625 4.18737 4.99994 4.18737 4.12485C4.18737 3.25034 4.93742 2.62526 5.6875 2.62526ZM35.6882 33.1249C35.6882 34.5011 34.5619 35.6245 33.1879 35.6245H6.93821C5.56308 35.6245 4.43909 34.5 4.43909 33.1249V10.6249C4.43909 9.25036 5.56365 8.12524 6.93821 8.12524H17.5631C19.9383 8.12524 20.0628 8.12524 20.0628 6.87512C20.0628 5.25053 21.1873 4.37602 22.5619 4.37602H33.1868C34.5625 4.37602 35.6871 5.50113 35.6871 6.87512V33.1249H35.6882Z" fill="#B3796E"/>
</svg>
