<svg width="58" height="42" viewBox="0 0 58 42" fill="none" xmlns="http://www.w3.org/2000/svg">
<path d="M34.273 18.8411C34.0544 18.8411 33.8372 18.8534 33.6222 18.8729L34.6125 26.2663L27.5841 23.8984C27.4139 24.5021 27.3213 25.1363 27.3213 25.7943C27.3213 29.6354 30.4348 32.7475 34.2737 32.7475C38.1148 32.7475 41.227 29.6354 41.227 25.7943C41.2263 21.9532 38.1134 18.8411 34.273 18.8411Z" fill="black"/>
<path d="M56.8942 24.7186C56.4867 24.1004 46.7724 9.58656 34.2733 9.58728C21.7727 9.588 12.0599 24.1018 11.6531 24.72L10.9443 25.7943L11.6531 26.8672C12.0606 27.4868 21.7741 42.0006 34.274 41.9999C46.7746 41.9992 56.4874 27.4854 56.8942 26.8664L57.6029 25.7936L56.8942 24.7186ZM34.2733 37.4342C27.8442 37.4342 22.6327 32.2227 22.6327 25.7943C22.6327 19.3645 27.8435 14.153 34.2733 14.1523C40.7031 14.1523 45.9139 19.3638 45.9139 25.7936C45.9139 32.222 40.7024 37.4342 34.2733 37.4342Z" fill="white"/>
<path d="M7.71924 2V13.3105" stroke="white" stroke-width="3.7502" stroke-miterlimit="10" stroke-linecap="round"/>
<path d="M2.0625 7.65454H13.373" stroke="white" stroke-width="3.7502" stroke-miterlimit="10" stroke-linecap="round"/>
</svg>
