<svg width="43" height="40" viewBox="0 0 43 40" fill="none" xmlns="http://www.w3.org/2000/svg">
<path d="M24.3147 39.066C22.5884 40.3111 19.79 40.3111 18.0637 39.066L1.54471 27.1481C-0.18157 25.9023 -0.18157 23.8837 1.54471 22.6385L18.0637 10.7206C19.79 9.47546 22.5884 9.47546 24.3147 10.7206L40.8337 22.6385C42.56 23.8843 42.56 25.9029 40.8337 27.1481L24.3147 39.066Z" fill="#5F8554"/>
<path d="M24.3147 33.6992C22.5884 34.9443 19.79 34.9443 18.0637 33.6992L1.54471 21.7813C-0.18157 20.5355 -0.18157 18.5168 1.54471 17.2717L18.0637 5.35378C19.79 4.10864 22.5884 4.10864 24.3147 5.35378L40.8337 17.2717C42.56 18.5175 42.56 20.5361 40.8337 21.7813L24.3147 33.6992Z" fill="#7AAB6C"/>
<path d="M24.3147 29.2792C22.5884 30.5244 19.79 30.5244 18.0637 29.2792L1.54471 17.3613C-0.18157 16.1156 -0.18157 14.0969 1.54471 12.8518L18.0637 0.933859C19.79 -0.311286 22.5884 -0.311286 24.3147 0.933859L40.8337 12.8518C42.56 14.0975 42.56 16.1162 40.8337 17.3613L24.3147 29.2792Z" fill="#8FC97F"/>
</svg>
